<svg xmlns="http://www.w3.org/2000/svg" xmlns:xlink="http://www.w3.org/1999/xlink" width="48" height="48" viewBox="0 0 48 48">
  <defs>
    <filter id="Ellipse_4" x="0" y="0" width="48" height="48" filterUnits="userSpaceOnUse">
      <feOffset dx="1" dy="3" input="SourceAlpha"/>
      <feGaussianBlur stdDeviation="3" result="blur"/>
      <feFlood flood-opacity="0.161"/>
      <feComposite operator="in" in2="blur"/>
      <feComposite in="SourceGraphic"/>
    </filter>
  </defs>
  <g id="app-icon-medis" transform="translate(8 6)">
    <g transform="matrix(1, 0, 0, 1, -8, -6)" filter="url(#Ellipse_4)">
      <g id="Ellipse_4-2" data-name="Ellipse 4" transform="translate(8 6)" fill="none" stroke="#707070" stroke-width="1">
        <circle cx="15" cy="15" r="15" stroke="none"/>
        <circle cx="15" cy="15" r="14.5" fill="none"/>
      </g>
    </g>
    <path id="FontAwsome_plus-circle_" data-name="FontAwsome (plus-circle)" d="M20,8A12,12,0,1,0,32,20,12,12,0,0,0,20,8Zm6.968,13.355a.582.582,0,0,1-.581.581H21.935v4.452a.582.582,0,0,1-.581.581h-2.71a.582.582,0,0,1-.581-.581V21.935H13.613a.582.582,0,0,1-.581-.581v-2.71a.582.582,0,0,1,.581-.581h4.452V13.613a.582.582,0,0,1,.581-.581h2.71a.582.582,0,0,1,.581.581v4.452h4.452a.582.582,0,0,1,.581.581Z" transform="translate(-5 -5)" fill="#fff"/>
  </g>
</svg>
