<svg xmlns="http://www.w3.org/2000/svg" width="30" height="40" viewBox="0 0 30 40">
  <path id="app-icon-follow" d="M-64-2898a1.85,1.85,0,0,1-1.541-.807c-2.023-2.933-3.726-5.359-5.229-7.5-6.813-9.7-8.23-11.724-8.23-16.694a14.9,14.9,0,0,1,4.393-10.606A14.9,14.9,0,0,1-64-2938a14.9,14.9,0,0,1,10.606,4.393A14.9,14.9,0,0,1-49-2923c0,4.97-1.417,6.989-8.228,16.691-1.5,2.135-3.2,4.554-5.23,7.5A1.851,1.851,0,0,1-64-2898Zm-4.371-22.119h0a12.808,12.808,0,0,0-4.063,1.357c-1.024.6-1.566,1.3-1.566,2.012,0,2.067,4.486,3.749,10,3.749s10-1.682,10-3.749c0-.716-.542-1.412-1.566-2.012a12.807,12.807,0,0,0-4.063-1.357,2.474,2.474,0,0,1-.621.533v.9c2.7.378,4.375,1.122,4.375,1.939,0,1.206-3.645,2.187-8.124,2.187s-8.125-.981-8.125-2.187c0-.817,1.676-1.56,4.375-1.939v-.9a2.477,2.477,0,0,1-.621-.533Zm2.957-7.256h-.461a1.877,1.877,0,0,0-1.875,1.876v3.749a1.252,1.252,0,0,0,1.25,1.25v3.75a1.251,1.251,0,0,0,1.25,1.25h2.5a1.251,1.251,0,0,0,1.249-1.25v-3.75a1.252,1.252,0,0,0,1.25-1.25v-3.749a1.877,1.877,0,0,0-1.875-1.876h-.461a3.388,3.388,0,0,1-1.414.312A3.39,3.39,0,0,1-65.415-2927.375ZM-64-2933a2.5,2.5,0,0,0-2.5,2.5A2.5,2.5,0,0,0-64-2928a2.5,2.5,0,0,0,2.5-2.5A2.5,2.5,0,0,0-64-2933Z" transform="translate(79 2938)" fill="#fff"/>
</svg>
