<svg xmlns="http://www.w3.org/2000/svg" width="30" height="40" viewBox="0 0 30 40">
  <path id="app-icon-bengkel" d="M-233-2898a1.85,1.85,0,0,1-1.541-.807c-2.023-2.933-3.726-5.359-5.229-7.5-6.812-9.7-8.23-11.724-8.23-16.694a14.9,14.9,0,0,1,4.393-10.606A14.9,14.9,0,0,1-233-2938a14.9,14.9,0,0,1,10.606,4.393A14.9,14.9,0,0,1-218-2923c0,4.97-1.417,6.989-8.228,16.691-1.5,2.141-3.206,4.568-5.23,7.5A1.851,1.851,0,0,1-233-2898Zm-5.333-20.667h10.667v1.334a1.334,1.334,0,0,0,1.333,1.333H-225a1.334,1.334,0,0,0,1.333-1.333v-2.254a2.653,2.653,0,0,0,.667-1.747v-2a2.645,2.645,0,0,0-1.723-2.487l-.468-1.171-.831-2.075a4.645,4.645,0,0,0-4.334-2.934h-5.291a4.644,4.644,0,0,0-4.333,2.934l-.831,2.075-.469,1.171a2.646,2.646,0,0,0-1.722,2.487v2a2.661,2.661,0,0,0,.666,1.747v2.254A1.335,1.335,0,0,0-241-2916h1.333a1.335,1.335,0,0,0,1.334-1.333v-1.333Zm11.349-2.667c-.7,0-1.349-.082-1.349-.673a2.555,2.555,0,0,1,2-1.994,1.261,1.261,0,0,1,1.334,1.329,1.261,1.261,0,0,1-1.334,1.329c-.095,0-.2,0-.3,0h-.008C-226.746-2921.335-226.866-2921.333-226.984-2921.333Zm-12.032,0c-.119,0-.239,0-.344,0h-.008c-.1,0-.2,0-.3,0a1.26,1.26,0,0,1-1.333-1.329,1.26,1.26,0,0,1,1.333-1.329,2.555,2.555,0,0,1,2,1.994C-237.667-2921.415-238.316-2921.333-239.017-2921.333Zm11.35-4.667h-10.667l.83-2.076a1.992,1.992,0,0,1,1.858-1.257h5.291a1.992,1.992,0,0,1,1.858,1.257l.83,2.075Z" transform="translate(248 2938)" fill="#fff"/>
</svg>
